/* XPM */
static char *_dd9ceacb1d64f2ac5748c495b99a4cbx9lSQ7q323UMTKzz[] = {
/* columns rows colors chars-per-pixel */
"64 64 256 2 ",
"   c black",
".  c #0000A8",
"X  c #00A800",
"o  c #00A8A8",
"O  c #A80000",
"+  c #A800A8",
"@  c #A85400",
"#  c gray66",
"$  c gray33",
"%  c #5454FC",
"&  c #54FC54",
"*  c #54FCFC",
"=  c #FC5454",
"-  c #FC54FC",
";  c #FCFC54",
":  c gray99",
">  c #ECECEC",
",  c gainsboro",
"<  c #D0D0D0",
"1  c #C0C0C0",
"2  c #B4B4B4",
"3  c gray66",
"4  c #989898",
"5  c gray55",
"6  c #7C7C7C",
"7  c gray44",
"8  c #646464",
"9  c gray33",
"0  c #484848",
"q  c gray22",
"w  c #2C2C2C",
"e  c #202020",
"r  c #FC0000",
"t  c #EC0000",
"y  c #E00000",
"u  c #D40000",
"i  c #C80000",
"p  c #BC0000",
"a  c #B00000",
"s  c #A40000",
"d  c #980000",
"f  c #880000",
"g  c #7C0000",
"h  c #700000",
"j  c #640000",
"k  c #580000",
"l  c #4C0000",
"z  c #400000",
"x  c #FCD8D8",
"c  c #FCB8B8",
"v  c #FC9C9C",
"b  c #FC7C7C",
"n  c #FC5C5C",
"m  c #FC4040",
"M  c #FC2020",
"N  c #FC0000",
"B  c #FCA85C",
"V  c #FC9840",
"C  c #FC8820",
"Z  c #FC7800",
"A  c #E46C00",
"S  c #CC6000",
"D  c #B45400",
"F  c #9C4C00",
"G  c #FCFCD8",
"H  c #FCFCB8",
"J  c #FCFC9C",
"K  c #FCFC7C",
"L  c #FCF85C",
"P  c #FCF440",
"I  c #FCF420",
"U  c #FCF400",
"Y  c #E4D800",
"T  c #CCC400",
"R  c #B4AC00",
"E  c #9C9C00",
"W  c #848400",
"Q  c #706C00",
"!  c #585400",
"~  c #404000",
"^  c #D0FC5C",
"/  c #C4FC40",
"(  c #B4FC20",
")  c #A0FC00",
"_  c #90E400",
"`  c #80CC00",
"'  c #74B400",
"]  c #609C00",
"[  c #D8FCD8",
"{  c #BCFCB8",
"}  c #9CFC9C",
"|  c #80FC7C",
" . c #60FC5C",
".. c #40FC40",
"X. c #20FC20",
"o. c #00FC00",
"O. c #00FC00",
"+. c #00EC00",
"@. c #00E000",
"#. c #00D400",
"$. c #04C800",
"%. c #04BC00",
"&. c #04B000",
"*. c #04A400",
"=. c #049800",
"-. c #048800",
";. c #047C00",
":. c #047000",
">. c #046400",
",. c #045800",
"<. c #044C00",
"1. c #044000",
"2. c #D8FCFC",
"3. c #B8FCFC",
"4. c #9CFCFC",
"5. c #7CFCF8",
"6. c #5CFCFC",
"7. c #40FCFC",
"8. c #20FCFC",
"9. c #00FCFC",
"0. c #00E4E4",
"q. c #00CCCC",
"w. c #00B4B4",
"e. c #009C9C",
"r. c #008484",
"t. c #007070",
"y. c #005858",
"u. c #004040",
"i. c #5CBCFC",
"p. c #40B0FC",
"a. c #20A8FC",
"s. c #009CFC",
"d. c #008CE4",
"f. c #007CCC",
"g. c #006CB4",
"h. c #005C9C",
"j. c #D8D8FC",
"k. c #B8BCFC",
"l. c #9C9CFC",
"z. c #7C80FC",
"x. c #5C60FC",
"c. c #4040FC",
"v. c #2024FC",
"b. c #0004FC",
"n. c #0000FC",
"m. c #0000EC",
"M. c #0000E0",
"N. c #0000D4",
"B. c #0000C8",
"V. c #0000BC",
"C. c #0000B0",
"Z. c #0000A4",
"A. c #000098",
"S. c #000088",
"D. c #00007C",
"F. c #000070",
"G. c #000064",
"H. c #000058",
"J. c #00004C",
"K. c #000040",
"L. c #282828",
"P. c #FCE034",
"I. c #FCD424",
"U. c #FCCC18",
"Y. c #FCC008",
"T. c #FCB400",
"R. c #B420FC",
"E. c #A800FC",
"W. c #9800E4",
"Q. c #8000CC",
"!. c #7400B4",
"~. c #60009C",
"^. c #500084",
"/. c #440070",
"(. c #340058",
"). c #280040",
"_. c #FCD8FC",
"`. c #FCB8FC",
"'. c #FC9CFC",
"]. c #FC7CFC",
"[. c #FC5CFC",
"{. c #FC40FC",
"}. c #FC20FC",
"|. c #FC00FC",
" X c #E000E4",
".X c #C800CC",
"XX c #B400B4",
"oX c #9C009C",
"OX c #840084",
"+X c #6C0070",
"@X c #580058",
"#X c #400040",
"$X c #FCE8DC",
"%X c #FCE0D0",
"&X c #FCD8C4",
"*X c #FCD4BC",
"=X c #FCCCB0",
"-X c #FCC4A4",
";X c #FCBC9C",
":X c #FCB890",
">X c #FCB080",
",X c #FCA470",
"<X c #FC9C60",
"1X c #F0945C",
"2X c #E88C58",
"3X c #DC8854",
"4X c #D08050",
"5X c #C87C4C",
"6X c #BC7848",
"7X c #B47044",
"8X c #A86840",
"9X c #A0643C",
"0X c #9C6038",
"qX c #905C34",
"wX c #885830",
"eX c #80502C",
"rX c #744C28",
"tX c #6C4824",
"yX c #5C4020",
"uX c #543C1C",
"iX c #483818",
"pX c #403018",
"aX c #382C14",
"sX c #28200C",
"dX c #600064",
"fX c #006464",
"gX c #006060",
"hX c #00001C",
"jX c #00002C",
"kX c #302410",
"lX c #480048",
"zX c #500050",
"xX c #000034",
"cX c gray11",
"vX c #4C4C4C",
"bX c gray36",
"nX c gray25",
"mX c gray19",
"MX c #343434",
"NX c #D8F4F4",
"BX c #B8E8E8",
"VX c #9CDCDC",
"CX c #74C8C8",
"ZX c #48C0C0",
"AX c #20B4B4",
"SX c #20B0B0",
"DX c #00A4A4",
"FX c #009898",
"GX c #008C8C",
"HX c #008484",
"JX c #007C7C",
"KX c #007878",
"LX c #007474",
"PX c #007070",
"IX c #006C6C",
"UX c #980088",
/* pixels */
",X,X,X:X,X6XpX    :X;X>X,X,X,X,X,X,X,X1X5XeXsX    7X5X6X8X8X8X8X8X8X8XqXeXiXsX    ;X;X:X>X>X>X>X>X>X>X,X5XeXkX    ;X;X:X,X1X,X,X",
"6X5X1X1X3X7X9X  kX>X,X6X7X7X7X7X7X7X7X8XqXeXyX    9X9XeXrXrXrXrXrXrXrXrXyXpXkX    >X>X1X3X3X3X3X3X3X3X5XqXrXiX  aX;X>X1X4X5X6X6X",
"9X8X6X5X6XqXeX  sX3X7XqXqXwXwXwXwXwXwXwXeXtXuXsX  iXyXuXiXiXiXiXiXiXiXiXpXkXsX    5X5X7X8X8X8X8X8X8X8X9XeXuXkX  rX>X3X6X8X9X9X9X",
"qXqX9X9X9XqXrX  sX5X8XwXeXeXeXeXeXeXeXeXrXyXuXsX  sXuXiXiXpXpXpXpXpXpXpXpXsXsX    tX6X7X9X9X9X9X9X9XqXqXtXuXsX  8X:X5X8XqXqXqXqX",
"qXqXqXqX9XqXtX  sX6X8XwXeXeXeXeXeXeXeXrXrXtXuXpX    uXuXiXpXpXpXpXpXpXpXpXkXsXsX  yX3X6X8X9X9X9X9X9XqXwXyXiX    :X,X6X9XqXqXqXqX",
"qXqXqXqX8XqXtX  sX6X8XwXeXeXeXeXeXeXeXeXrXtXuXiX    uXuXiXpXpXpXpXpXpXpXpXaXsXsX  kX1X5X8XqXqXqXqXqXqXeXuXpX    ,X3X8XqXqXqXqXqX",
"qXqXqXqX8XqXtX  sX6X8XwXeXeXeXeXeXeXeXeXrXrXyXiXsX  kXuXiXiXpXpXpXpXpXpXpXaXsXsX    5X7XqXqXqXqXqXqXwXtXiXkX  sX1X5X9XqXqXqXqXqX",
"qXqXqXqX9XwXtX  sX6X8XwXeXeXeXeXeXeXeXeXrXrXyXiXkX  sXtXuXiXpXpXpXpXpXpXpXaXsXsX    9XqXrXtXtXtXtXtXtXuXpXkX  yX1X6X9XqXqXqXqXqX",
"qXqXqX9XqXrXyX  sX7XqXeXrXrXeXeXeXeXrXrXrXrXyXuXiX    tXuXiXpXpXpXpXpXaXaXsXsXsX    iXrXuXiXiXiXiXiXiXiXpXsX  eX5X8XqXqXqXqXqXqX",
"9X9XqXwXrXuXuX  sXqXeXrXrXrXrXrXrXrXrXtXyXuXiXiXpXsX  iXiXiXpXpXaXaXkXsXsXsXsXsX    aXuXiXpXaXaXpXpXpXpXiXsX  qX9XeXrXrXeXwXqXqX",
"qXqXrXyXuXuXpX  sXrXyXyXyXtXtXtXtXyXuXuXiXpXaXpXpXsX  sXiXpXpXaXkXsXsXsXsXsX                                    sXiXyXyXyXtXtXwX",
"rXtXiXpXsX          sXiXiXuXuXuXiXiXpXaXaXaXsXsX    sX  aXaXkXsXsXsXsXsX      sXrX:X>X,X4X9XrX  kX,X,X,X,X3XqXsX      sXpXiXiXyX",
"iXsX      sXeX5XiX      sXiXiXpXaXaXkXsXsX    kX8X5XqX    kXsXsXsXsX      iX8X>X>X,X5X7X9XeXuX  kX,X>X3X6X6X8X8XqXiXsX    sXkXpX",
"    kXqX>X>X,X3X8X9XpX      sXpXsXsX    sXeX:X:X,X6XqXiX    sX      sXrX;X:X,X5X7X8XqXqXeXyXiX  sX1X5X9XqXqXqX9X8X6X6XeXkX      ",
"sX,X;X>X,X5X7X8XqXqXqX9XpX          uX,X:X:X>X1X5X8XqXqXkX      pX8X>X>X,X5X8XqXqXwXeXeXrXuXpX  sX3X6XqXqXqXqXqXqX9X8X8X9XqXpX  ",
"kX>X,X6X9XqXwXeXeXwXqXqXqXeXpX    ;X;X>X,X3X5X8X9X9XqXqXqXsX  eX3X1X5X7X8XqXqXeXeXeXeXeXrXuXpX  sX4X7XqXqXqXqXqXqXqXqXqXqXeXyX  ",
"kX3X7XqXeXeXeXeXeXeXeXwXeXtXyX    ,X,X5X7X8X9X9XqXqXqX9XqXeX  sXqXqXqXqXwXeXeXeXeXeXeXeXrXuXpX  sX4X7XqXqXqXqXqXqXqXqXqXeXtXiX  ",
"sX5X8XwXeXeXeXeXeXeXeXeXrXyXiXsX  qX6X8X9XqXqXqXqXqXqXqXqXwXtX  sXtXtXrXeXeXeXeXeXeXeXeXrXuXpX  sX4X7XqXqXqXqXqXqXqXqXwXeXyXiX  ",
"sX5X8XwXeXeXeXeXeXeXeXrXtXuXiXsX  iX9X9XqXqXqXqXqXqXqXqXqXeXyXpX  aXyXtXrXeXeXeXeXeXeXeXrXuXpX  sX4X7XqXqXqXqXqXqXqXqXwXeXyXpX  ",
"sX5X8XwXeXeXeXeXeXeXrXtXuXiXaXkX  sXqXwXwXqXqXqXqXqXqXwXrXyXiXuXpX  pXtXtXrXrXeXeXeXeXeXrXuXpX  sX4X7XqXqXqXqXqXqXqXqXwXeXyXpX  ",
"sX7XqXeXrXrXrXrXrXrXyXuXpXkXkX      iXeXrXrXeXwXwXeXrXyXuXiXiXsX      pXyXyXtXrXrXeXeXeXrXuXpX  sX4X7XqXqXqXqXqXwXwXeXeXtXuXaX  ",
"sXqXtXuXuXyXtXtXtXyXiXaXkXsX    iXsX    aXtXtXtXtXyXuXiXpXsX    sXaX    sXiXuXyXrXrXrXrXtXuXpX  sX5X8XqXwXwXwXeXeXeXrXtXuXpXkX  ",
"sXtXiXpXpXiXiXuXiXpXaXkXsX    qX>X3XeXsX    aXyXuXuXpXsX    aXqX8XqXyX      aXyXtXtXtXyXuXpXaX  sX9XqXeXeXeXeXrXtXyXuXiXpXaXkX  ",
"      sXsXkXkXpXaXkXkXsX    ,X:X1X8XqXqXyX      kXsX    iX6X7X8XqXrXuXuXsX    sXyXuXiXpXaXkXkX  sXeXrXyXyXyXuXuXiXpXpXkXsX      ",
"uXkX              sXsX  sX:X>X6XqXeXeXeXeXtXpXsX    rX8X8X8XqXtXuXiXiXiXuXiX      aXpXkXsXsXsX    uXpXiXiXpXpXpXaXsX      sXuXrX",
"2X3X2X5XqXrXaXsX      sX>X,X8XqXrXrXrXrXtXuXpXkX  sX5XqXeXtXuXiXiXiXiXiXiXuXiXsX    sX      sXkX            sXsX      yX7X4X,X1X",
"3X3X2X2X1X,X,X5XqXuX  rX3X8XeXrXtXtXtXtXuXpXkXsX  qX8XrXuXiXiXiXiXiXiXiXiXiXiXpXkX    kX8X;X:X>X>X,XqXrXuXsXsX    wX5X3X3X3X3X3X",
"8X7X5X5X5X3X4X8XeXiX  yX6X9XrXtXtXtXtXyXiXaXkX    8XqXuXiXiXiXiXiXiXiXiXiXiXpXkXsX    :X;X:X,X3X5X5X5X5X4X7XqX    8X6X7X8X8X8X8X",
"9X9X8X8X7X6X8XqXyXiX  yX7XqXrXtXtXtXtXyXiXkXsX  kX8XrXiXiXiXiXiXiXiXiXiXiXpXkXsXsX  yX;X>X5X8X8X9X9X8X8X8XqXtX    wXqXqX9X9X9X9X",
"9X9X9X9X9X9X9XeXyXpX  yX7XqXrXtXtXtXyXuXpXkXsX  eXqXyXiXiXiXiXiXiXiXiXiXpXaXsXsX    ,X>X5X8XqXqXqXqXqXqXqXrXuXsX  iXqX9X9X9X9X9X",
"9X9X9X9X9X9X9XeXyXpX  yX7XqXrXtXtXtXyXiXaXkX    8XqXuXiXiXiXiXiXiXiXiXiXpXkXsXsX  iX>X1X8XqXqXqXqXqXqXqXwXtXuXsX  uXqX9X9X9X9X9X",
"9X9X9X9X9X9X9XeXyXpX  yX7XqXrXtXtXtXyXiXkXsX  sXqXrXiXiXiXiXiXiXiXiXiXpXaXsXsX    1X,X6X9XqXqXqXqXqXqXwXeXyXiXaX  sXqXqX9X9X9X9X",
"9X9X9X9X9X9X9XeXuXpX  yX7XqXrXtXtXyXuXpXkXsX  pXyXiXiXiXiXiXiXiXiXiXiXpXkXsXsX  iX>X3X8XqXqXqXqXqXqXeXrXyXiXpXpX  sXeXqX9X9X9X9X",
"9X9X9X9X9X9XqXeXuXpX  yX8XqXrXtXyXuXiXkXsX    sXpXaXaXpXpXiXiXiXiXiXpXaXsXsX    5X1X8XqXqXqXqXqXwXeXyXiXpXpXsX      yXrXqX9X9X9X",
"9X9X9X9X9XqXeXyXiXpX  iXqXwXrXtXyXiXkXsX          sXkXaXpXpXiXiXiXpXaXsXsXsX  kX7XqXeXrXeXwXwXeXrXyXiXpXsX      iX    uXrXqX9X9X",
"9X9X9XqXwXrXuXiXiXsX  kXrXrXtXyXuXpXkXsX  iX3XsX    sXkXkXaXpXpXpXaXsXsXsX    tXeXyXuXyXyXtXyXuXiXiXaXsX    rX,X7XuX  sXuXrXqX9X",
"qXqXqXrXyXiXiXkX        aXyXyXuXpXkXsX    ;X>X5XuX      sXkXaXaXaXsXsXsX          sXsXaXiXiXiXpXaXsX    iX:X:X1X8XwXsXsXaXyXrXeX",
"eXwXtXiXiXkX      kXpX    sXuXiXkXsX    8X;X,X5X6X9XsX    sXkXkXsXsXsXsX  sX9XuXsX          sXsX    iX1X>X,X5X8XqXeXrXsXsXaXuXtX",
"tXyXiXkX      iX5X5X8XiX    sXaXkXsX  aX;X:X4X7X8X7X8XiX      sXsXsXsX    ;X>X3X5X5XqXyXsX        5X:X,X5X8XqXqXeXeXrXuX    aXuX",
"uXaX      iX,X>X,X8XqXqXtX      aX    :X:X1X7X8X8X8X8X7XqXsX    sXsX    >X:X5X8X8X8X8X8X9XeXiX  kX,X1X8XqXqXeXeXeXeXrXyXpX    aX",
"      iX,X:X,X7XqXeXeXeXrXuXsX      eX;X,X6X8X9X9X9X8X8X7X8XiX        qX:X5X9XqXqXqXqXqXrXuXkX  yX,X6XqXeXeXeXeXeXeXrXrXtXkX  sX",
"  eX>X:X,X7XqXeXrXrXtXrXtXtXyXsX    ;X>X5X8X9X9X9X9X9X8X8X8X9XrXsX  iX>X,X8XqXeXeXeXeXeXyXiXsX  qX,X8XqXeXeXeXeXeXeXeXeXrXtXsX  ",
"kX:X>X6XqXeXrXrXtXtXtXtXtXyXuXiX  aX:X1X7X8X9X9X9X9X9X9X9X9XwXtXsX  qX>X5XqXwXeXeXeXeXrXuXpXsX  1X1X9XqXeXeXeXeXeXeXeXeXrXyXuX  ",
"sX1X7XqXrXrXtXtXtXtXtXtXtXyXiXpX  kX,X4X8X9X9X9X9X9X9X9X9XqXrXyXsX  9X,X7XqXeXeXeXeXeXtXiXpX    1X6XqXeXeXeXeXeXeXeXeXeXrXyXiX  ",
"sX6X9XeXtXtXtXtXtXtXtXtXtXyXiXaX  kX,X5X8X9X9X9X9X9X9X9X9XqXrXuXsX  1X1X8XqXeXeXeXeXrXyXpXaX  sX5X8XqXeXeXeXeXeXeXeXeXeXrXuXpX  ",
"sX7XqXrXtXtXtXtXtXtXtXtXtXyXiXaX  kX,X5X8X9X9X9X9X9X9X9X9XqXrXuXsX  ,X5XqXeXeXeXeXeXrXuXpXsX  sX5X8XqXeXeXeXeXeXeXeXeXeXrXuXpX  ",
"sX7XqXrXtXtXtXtXtXtXtXtXtXyXiXaX  kX,X5X8X9X9X9X9X9X9X9X9XqXrXuX    5X8XqXeXeXeXeXeXrXuXaXkX  uX5X9XqXeXeXeXeXeXeXeXeXeXrXuXpX  ",
"sX7XqXrXtXtXtXtXtXtXtXtXtXyXiXaX  kX,X5X8X9X9X9X9X9X9X9X9XqXrXuX  sX5X8XqXeXeXeXeXrXtXiXaXsX  tX8XwXrXrXeXeXeXeXeXeXeXrXtXuXaX  ",
"sX8XqXrXtXtXtXtXtXtXtXtXyXuXiXkX  sX1X5X8X9X9X9X9X9X9X9XqXqXtXuX  sX5X8XqXeXeXeXrXtXuXaXkXsX  yXrXyXyXyXtXrXrXeXeXrXrXtXuXpXaX  ",
"sXqXqXrXtXtXtXtXtXtXyXyXuXiXaXkX  sX5X6X8X9X9X9X9X9XqXqXqXrXuXiX  sX6X8XqXeXeXrXtXuXpXkXsX      sXaXuXuXuXuXyXtXtXtXyXiXpXkXkX  ",
"  eXrXtXtXtXtXtXtXyXuXiXpXkXsXsX  sX8X8X9X9X9X9XqXqXqXeXyXuXpXaX  kX8X9XwXeXeXtXuXpXkXkX    iX        sXaXiXiXuXuXiXpXaXkXsXsX  ",
"  sXyXyXyXyXyXyXyXuXiXkXsXsXsX      yXqXqXqXqXqXqXeXyXuXiXpXsX      eXwXeXrXtXuXpXkXkX    >X>X1XqXaX        sXaXpXaXkXsX        ",
"iX  sXiXuXuXuXuXiXpXkXsXsX      iX    uXqXqXqXeXtXuXiXpXsX      sX    yXtXyXuXpXkXkX    :X:X1X6X7X6X6XeXaX        sX    sXiXrXtX",
"rXpX    pXpXpXpXkXkXsX      rX>X3XqX    uXeXrXyXiXiXaX      eXqXuX      yXuXpXaXkX    >X:X5X9XqXqX9X8X8X7X7XtXsXsX  sXqX5X6XqXyX",
"eXtXiX    sXaXkXkXsX    iX,X:X,X6XqXtX    iXtXuXiXsX    tX7X6XqXiXkX    sXiXpXkX    >X:X5X9XqXwXwXqXqXqXqXqXeXyXsX  qX,X4X8X9XqX",
"qXeXtXeX    kXkX    sX3X>X,X5X8XqXwXeXyX    iXsX    pX8X6X8XqXiXaXkXkX    sXaX    >X:X5XqXqXwXwXwXwXwXwXqXeXyXiXsX  9X3X7X9X9X9X",
"9XqXwXeXeX      sX7X>X,X5X8XqXeXeXeXeXrXyX      kXqX6XqXqXiXpXaXkXkXsXsX        >X>X5XqXqXwXwXwXwXwXwXwXeXrXuXpX    6X8X9X9X9X9X",
"9X9XqXwXeXwX    >X>X5X8XqXwXeXeXeXeXeXrXyXiX    8X8XqXiXpXaXkXkXkXkXkXsXsX    9X,X5X9XqXwXwXwXwXwXwXwXeXeXyXpXaX    6X9X9X9X9X9X",
"9X9XqXwXwXwX    5X6XqXwXeXeXeXeXeXeXrXrXuXiX    qXwXiXaXkXkXkXkXkXkXkXsXsX    tX6X8XqXwXwXwXwXwXwXwXwXeXrXyXpXsX  sX8X9X9X9X9X9X",
"9X9X9XqXwXtXsX  qXqXwXeXeXeXeXeXeXeXrXtXuXpX    iXpXaXkXkXkXkXkXkXkXkXsXsXsX  sX6X8XqXwXwXwXwXwXwXwXwXeXrXuXpXkX  iX8X8X9X9X9X9X",
"9X9XqXqXwXyXkXsXuXqXqXeXrXrXrXrXrXrXrXtXuXaXsX  sXiXaXkXkXkXkXkXkXkXkXsXsXsX    7X9XqXeXeXeXeXeXeXeXeXeXrXuXpXsX  rX7X8X9X9X9X9X",
"wXwXqXwXrXyXkXsXuX9XqXrXtXtXtXtXtXtXtXyXiXaXsX  sXiXaXkXsXsXsXsXsXsXsXsXsXsX    eXqXeXrXrXrXrXrXrXrXrXrXtXuXpXsX  rX9XqXqXqXqXqX",
"yXyXyXyXuXiXkXsXkXqXtXuXiXiXiXiXiXiXiXiXpXkXsX    aXsXsXsXsXsXsXsXsXsXsXsXsX    iXrXtXuXuXuXuXuXuXuXuXuXuXpXaX    tXrXyXuXuXyXyX",
"aXaXaXpXpXaXsX  sXyXiXaXkXkXkXkXkXkXkXkXkXsXsX    sXsXsXsXsXsXsXsXsXsXsXsXsXsX  sXyXiXpXaXaXaXaXaXaXaXaXaXkXkX    uXiXaXaXkXkXkX"
};
